<svg id="visual" viewBox="0 0 1920 1080" width="1920" height="1080" xmlns="http://www.w3.org/2000/svg" xmlns:xlink="http://www.w3.org/1999/xlink" version="1.1"><path d="M933 0L984.8 25.7C1036.7 51.3 1140.3 102.7 1147.3 154.2C1154.3 205.7 1064.7 257.3 1060.8 308.8C1057 360.3 1139 411.7 1130.8 463C1122.7 514.3 1024.3 565.7 971 617C917.7 668.3 909.3 719.7 958.3 771.2C1007.3 822.7 1113.7 874.3 1156 925.8C1198.3 977.3 1176.7 1028.7 1165.8 1054.3L1155 1080L0 1080L0 1054.3C0 1028.7 0 977.3 0 925.8C0 874.3 0 822.7 0 771.2C0 719.7 0 668.3 0 617C0 565.7 0 514.3 0 463C0 411.7 0 360.3 0 308.8C0 257.3 0 205.7 0 154.2C0 102.7 0 51.3 0 25.7L0 0Z" fill="#68c6ed" stroke-linecap="round" stroke-linejoin="miter"></path></svg>